<svg t="1744110965889" class="icon" viewBox="0 0 1024 1024" version="1.1"
    xmlns="http://www.w3.org/2000/svg" p-id="5406" width="48" height="48">
    <path
        d="M512 1024C229.244656 1024 0 794.755344 0 512 0 229.244656 229.244656 0 512 0c282.755344 0 512 229.244656 512 512C1024 794.755344 794.755344 1024 512 1024L512 1024zM512 55.334917c-252.199525 0-456.665083 204.465558-456.665083 456.665083s204.465558 456.665083 456.665083 456.665083c252.199525 0 456.665083-204.465558 456.665083-456.665083S764.199525 55.334917 512 55.334917L512 55.334917zM696.551069 830.175772 502.574822 663.258907c-79.657957-4.864608-142.897862-70.384798-142.897862-151.258907 0-26.603325 7.448931-51.230404 19.458432-72.969121l-47.125891-223.315914-9.273159-29.947743 198.384798 175.125891c79.657957 4.864608 142.897862 70.384798 142.897862 151.258907 0 26.907363-7.60095 51.83848-19.914489 73.881235L690.166271 808.437055 696.551069 830.175772 696.551069 830.175772zM512 415.163895c-53.510689 0-96.836105 43.325416-96.836105 96.836105 0 53.510689 43.325416 96.836105 96.836105 96.836105s96.836105-43.325416 96.836105-96.836105C608.836105 458.489311 565.510689 415.163895 512 415.163895L512 415.163895zM512 415.163895"
        fill="#00ff1e" p-id="5407"></path>
</svg>